0
SECTION
2
HEADER
9
$INSUNITS
70
4
9
$ACADVER
1
AC1014
9
$HANDSEED
5
FFFF
0
ENDSEC
0
SECTION
2
TABLES
0
TABLE
2
VPORT
5
8
100
AcDbSymbolTable
0
ENDTAB
0
TABLE
2
LTYPE
5
5
100
AcDbSymbolTable
0
LTYPE
5
14
100
AcDbSymbolTableRecord
100
AcDbLinetypeTableRecord
2
BYBLOCK
70
0
0
LTYPE
5
15
100
AcDbSymbolTableRecord
100
AcDbLinetypeTableRecord
2
BYLAYER
70
0
0
ENDTAB
0
TABLE
2
LAYER
5
2
100
AcDbSymbolTable
70
2
0
LAYER
5
50
100
AcDbSymbolTableRecord
100
AcDbLayerTableRecord
2
0
70
0
6
CONTINUOUS
0
ENDTAB
0
TABLE
2
STYLE
5
3
100
AcDbSymbolTable
70
1
0
STYLE
5
11
100
AcDbSymbolTableRecord
100
AcDbTextStyleTableRecord
2
STANDARD
70
0
0
ENDTAB
0
TABLE
2
VIEW
5
6
100
AcDbSymbolTable
70
0
0
ENDTAB
0
TABLE
2
UCS
5
7
100
AcDbSymbolTable
70
0
0
ENDTAB
0
TABLE
2
APPID
5
9
100
AcDbSymbolTable
70
2
0
APPID
5
12
100
AcDbSymbolTableRecord
100
AcDbRegAppTableRecord
2
ACAD
70
0
0
ENDTAB
0
TABLE
2
DIMSTYLE
5
A
100
AcDbSymbolTable
70
1
0
ENDTAB
0
TABLE
2
BLOCK_RECORD
5
1
100
AcDbSymbolTable
70
1
0
BLOCK_RECORD
5
1F
100
AcDbSymbolTableRecord
100
AcDbBlockTableRecord
2
*MODEL_SPACE
0
BLOCK_RECORD
5
1B
100
AcDbSymbolTableRecord
100
AcDbBlockTableRecord
2
*PAPER_SPACE
0
ENDTAB
0
ENDSEC
0
SECTION
2
BLOCKS
0
BLOCK
5
20
100
AcDbEntity
100
AcDbBlockBegin
2
*MODEL_SPACE
0
ENDBLK
5
21
100
AcDbEntity
100
AcDbBlockEnd
0
BLOCK
5
1C
100
AcDbEntity
100
AcDbBlockBegin
2
*PAPER_SPACE
0
ENDBLK
5
1D
100
AcDbEntity
100
AcDbBlockEnd
0
ENDSEC
0
SECTION
2
ENTITIES
0
LWPOLYLINE
5
100
100
AcDbEntity
8
OUTER_PROFILES
100
AcDbPolyline
90
24
70
1
43
0.0
10
19.599999999999977
20
-8.9372953482325102e-14
42
0.21464102397193838
10
22.374905185658044
20
0.74290286566544472
10
22.906172769469997
20
1.2820949457454045
10
24.574150459039572
20
4.2683840314336461
42
0.59894324061826998
10
22.671433374462996
20
7.2375143562743176
42
-1.4366669026744601
10
32.391161433062962
20
41.521543282942474
42
0.60770016786639947
10
35.570609361035771
20
43.101625761003916
10
35.61289950415059
20
45.524426437411407
42
0.33337050823493075
10
32.743146388170899
20
48.5916181094316
10
20.745460653406997
20
50.713825552365307
42
0.031891875091082093
10
20.302188442342999
20
50.763371721768223
42
0.4131937117491597
10
-3.4036161174617607
20
25.383478073460644
10
-3.4036161174619872
20
20.383478073460633
42
0.41421356237309503
10
-2.4036161174619863
20
19.38347807346063
10
-0.99000000000000155
20
19.383478073460633
42
-0.41421356237309492
10
0.0099999999999979272
20
18.383478073460633
10
0.0099999999999944578
20
16.373478073460635
10
-7.2382294738708985
20
16.373478073460625
10
-19.838229473870911
20
16.373478073460632
42
0.41421356237309537
10
-21.838229473870911
20
14.373478073460626
10
-21.838229473870907
20
1.9999999999999996
42
0.41421356237309503
10
-19.838229473870904
20
-1.3877787807814457e-15
10
-7.2382294738709057
20
2.2204460492503131e-15
10
0
20
0
0
CIRCLE
5
101
100
AcDbEntity
8
INTERIOR_PROFILES
100
AcDbCircle
10
-10.233513525909999
20
7.2132075238838063
30
0
40
1.7500000000000004
210
0
220
0
230
-1
0
CIRCLE
5
102
100
AcDbEntity
8
INTERIOR_PROFILES
100
AcDbCircle
10
-20.162031680611996
20
3.4545796256546035
30
0
40
1.2645
210
0
220
0
230
-1
0
CIRCLE
5
103
100
AcDbEntity
8
INTERIOR_PROFILES
100
AcDbCircle
10
-20.135827791145999
20
47.267327652576114
30
0
40
1.2645000000000017
210
0
220
0
230
-1
0
CIRCLE
5
104
100
AcDbEntity
8
INTERIOR_PROFILES
100
AcDbCircle
10
-32.141013525910211
20
45.15811059069911
30
0
40
1.7499999999999982
210
0
220
0
230
-1
0
CIRCLE
5
105
100
AcDbEntity
8
INTERIOR_PROFILES
100
AcDbCircle
10
14.481556118208697
20
8.1769704530282077
30
0
40
5.1370000000000005
210
0
220
0
230
-1
0
LINE
5
106
100
AcDbEntity
8
BEND
100
AcDbLine
10
-3.6191147369354582
20
2.2204460492503131e-15
30
-3.0862911557799772e-15
11
-3.6191147369354582
21
16.373478073460635
31
-1.6104161214235725e-14
0
LINE
5
107
100
AcDbEntity
8
BEND_EXTENT
100
AcDbLine
10
0
20
16.373478073460635
30
-6.6613381477509392e-15
11
0
21
0
31
0
0
LINE
5
108
100
AcDbEntity
8
BEND_EXTENT
100
AcDbLine
10
-7.2382294738709057
20
2.2204460492503131e-15
30
-2.0908025765611437e-14
11
-7.2382294738708985
21
16.373478073460625
31
-2.0908025765611437e-14
0
ENDSEC
0
SECTION
2
OBJECTS
0
DICTIONARY
5
C
100
AcDbDictionary
3
ACAD_GROUP
350
D
3
ACAD_MLINESTYLE
350
17
0
DICTIONARY
5
D
100
AcDbDictionary
0
DICTIONARY
5
1A
330
C
100
AcDbDictionary
0
DICTIONARY
5
17
100
AcDbDictionary
0
ENDSEC
0
EOF
