0
SECTION
2
HEADER
9
$INSUNITS
70
4
9
$ACADVER
1
AC1014
9
$HANDSEED
5
FFFF
0
ENDSEC
0
SECTION
2
TABLES
0
TABLE
2
VPORT
5
8
100
AcDbSymbolTable
0
ENDTAB
0
TABLE
2
LTYPE
5
5
100
AcDbSymbolTable
0
LTYPE
5
14
100
AcDbSymbolTableRecord
100
AcDbLinetypeTableRecord
2
BYBLOCK
70
0
0
LTYPE
5
15
100
AcDbSymbolTableRecord
100
AcDbLinetypeTableRecord
2
BYLAYER
70
0
0
ENDTAB
0
TABLE
2
LAYER
5
2
100
AcDbSymbolTable
70
2
0
LAYER
5
50
100
AcDbSymbolTableRecord
100
AcDbLayerTableRecord
2
0
70
0
6
CONTINUOUS
0
ENDTAB
0
TABLE
2
STYLE
5
3
100
AcDbSymbolTable
70
1
0
STYLE
5
11
100
AcDbSymbolTableRecord
100
AcDbTextStyleTableRecord
2
STANDARD
70
0
0
ENDTAB
0
TABLE
2
VIEW
5
6
100
AcDbSymbolTable
70
0
0
ENDTAB
0
TABLE
2
UCS
5
7
100
AcDbSymbolTable
70
0
0
ENDTAB
0
TABLE
2
APPID
5
9
100
AcDbSymbolTable
70
2
0
APPID
5
12
100
AcDbSymbolTableRecord
100
AcDbRegAppTableRecord
2
ACAD
70
0
0
ENDTAB
0
TABLE
2
DIMSTYLE
5
A
100
AcDbSymbolTable
70
1
0
ENDTAB
0
TABLE
2
BLOCK_RECORD
5
1
100
AcDbSymbolTable
70
1
0
BLOCK_RECORD
5
1F
100
AcDbSymbolTableRecord
100
AcDbBlockTableRecord
2
*MODEL_SPACE
0
BLOCK_RECORD
5
1B
100
AcDbSymbolTableRecord
100
AcDbBlockTableRecord
2
*PAPER_SPACE
0
ENDTAB
0
ENDSEC
0
SECTION
2
BLOCKS
0
BLOCK
5
20
100
AcDbEntity
100
AcDbBlockBegin
2
*MODEL_SPACE
0
ENDBLK
5
21
100
AcDbEntity
100
AcDbBlockEnd
0
BLOCK
5
1C
100
AcDbEntity
100
AcDbBlockBegin
2
*PAPER_SPACE
0
ENDBLK
5
1D
100
AcDbEntity
100
AcDbBlockEnd
0
ENDSEC
0
SECTION
2
ENTITIES
0
CIRCLE
5
100
100
AcDbEntity
8
0
100
AcDbCircle
10
-199.0020820622598
20
288.36993036645657
30
0
40
1.2644999999999995
210
-1.1939493566230406e-33
220
-7.9832410117224622e-47
230
1
0
CIRCLE
5
101
100
AcDbEntity
8
0
100
AcDbCircle
10
-199.00208206225216
20
248.36993036645669
30
0
40
1.2644999999999995
210
-1.1939493452332867e-33
220
-7.9832409355657127e-47
230
1
0
CIRCLE
5
102
100
AcDbEntity
8
0
100
AcDbCircle
10
-199.00208206224454
20
208.36993036645683
30
0
40
1.2644999999999995
210
-1.1939493566230406e-33
220
-7.9832410117224622e-47
230
1
0
CIRCLE
5
103
100
AcDbEntity
8
0
100
AcDbCircle
10
-199.00208206223695
20
168.36993036645706
30
0
40
1.2644999999999995
210
7.2575887110115106e-34
220
8.1948034560238158e-47
230
1
0
CIRCLE
5
104
100
AcDbEntity
8
0
100
AcDbCircle
10
-199.00208206222936
20
128.3699303664576
30
0
40
1.2644999999999995
210
-1.1939493510626883e-33
220
-7.9832409745435766e-47
230
1
0
CIRCLE
5
105
100
AcDbEntity
8
0
100
AcDbCircle
10
-199.00208206222177
20
88.369930366457595
30
0
40
1.2644999999999995
210
-1.1939493452332867e-33
220
-7.9832409355657127e-47
230
1
0
CIRCLE
5
106
100
AcDbEntity
8
0
100
AcDbCircle
10
-199.00208206221413
20
48.369930366457623
30
0
40
1.2644999999999995
210
5.8675812801368489e-34
220
4.261056891092618e-47
230
1
0
CIRCLE
5
107
100
AcDbEntity
8
0
100
AcDbCircle
10
-195.73118486548424
20
310.77840086801768
30
0
40
2.5
210
3.8780835814958668e-43
220
-1.4021290242943854e-71
230
1
0
LWPOLYLINE
5
108
100
AcDbEntity
8
0
100
AcDbPolyline
90
18
70
1
43
0.0
10
-194.81592224178007
20
41.743554430808075
42
0.41421356237309453
10
-189.81592224178036
20
46.743554430808416
10
-189.81592224178772
20
156.45553098007321
42
-0.27268424373877098
10
-189.81592224178794
20
159.50127075594301
10
-189.8159222417988
20
321.75793289810986
42
-0.06922641177750874
10
-189.81592224179883
20
322.19886883790673
10
-189.81592224179903
20
325.53093594468123
42
-0.30866383812627946
10
-186.63914734240626
20
330.18666899464426
42
0.30866383812627557
10
-183.46237244301358
20
334.84240204460764
10
-183.46237244301454
20
345.97840086800841
42
0.41421356237309087
10
-188.462372443015
20
350.97840086800795
10
-204.46237283044451
20
350.97840086800653
42
0.41421356237307633
10
-209.46237283044405
20
345.97840086800636
10
-209.46237283044354
20
334.75963313574505
42
0.23915780203290651
10
-207.41537349168382
20
330.72481131877305
42
-0.23915780203290976
10
-205.3683741529241
20
326.68998950180134
10
-205.36837415289895
20
46.743554430807315
42
0.41421356237308099
10
-200.36837415289867
20
41.743554430807805
0
CIRCLE
5
109
100
AcDbEntity
8
0
100
AcDbCircle
10
-189.23118486549987
20
335.97840086800829
30
-3.5527136788005009e-14
40
1.9999999999999929
210
-2.3409524002561018e-34
220
-2.1042555905726428e-47
230
1
0
LWPOLYLINE
5
110
100
AcDbEntity
8
0
100
AcDbPolyline
90
8
70
1
43
0.0
10
-202.23118486549555
20
238.9784008680077
42
0.41421356237307422
10
-203.23118486549555
20
237.97840086800764
10
-203.23118486549515
20
229.97840086800761
42
0.41421356237310542
10
-202.23118486549507
20
228.9784008680077
10
-194.23118486549509
20
228.97840086800801
42
0.41421356237307422
10
-193.23118486549509
20
229.97840086800807
10
-193.23118486549546
20
237.97840086800807
42
0.41421356237309503
10
-194.23118486549555
20
238.97840086800801
0
CIRCLE
5
111
100
AcDbEntity
8
0
100
AcDbCircle
10
-204.23118486550035
20
345.47840086800755
30
0
40
1.9999999999999929
210
-2.3409524002561018e-34
220
-2.1042555905726428e-47
230
1
0
LWPOLYLINE
5
112
100
AcDbEntity
8
0
100
AcDbPolyline
90
8
70
1
43
0.0
10
-203.23118486548958
20
106.47840086800763
42
0.41421356237313145
10
-202.23118486548952
20
105.47840086800767
10
-194.23118486548952
20
105.47840086800801
42
0.41421356237304818
10
-193.23118486548958
20
106.47840086800807
10
-193.23118486548995
20
114.47840086800809
42
0.414213562373069
10
-194.23118486549001
20
115.47840086800805
10
-202.23118486549004
20
115.47840086800767
42
0.41421356237307944
10
-203.23118486548998
20
114.47840086800764
0
CIRCLE
5
113
100
AcDbEntity
8
0
100
AcDbCircle
10
-193.2311848654964
20
258.47840086800846
30
0
40
1.7499999999999716
210
2.8473926711733334e-33
220
2.5594890123423979e-46
230
1
0
CIRCLE
5
114
100
AcDbEntity
8
0
100
AcDbCircle
10
-188.7311848655003
20
345.47840086800824
30
0
40
1.4999999999999858
210
-2.3409524002561018e-34
220
-2.1042555905726428e-47
230
1
0
CIRCLE
5
115
100
AcDbEntity
8
0
100
AcDbCircle
10
-197.23118486548924
20
98.97840086800764
30
0
40
1.7500000000000071
210
-2.3409523998806361e-34
220
1.5777218104420236e-30
230
1
0
ENDSEC
0
SECTION
2
OBJECTS
0
DICTIONARY
5
C
100
AcDbDictionary
3
ACAD_GROUP
350
D
3
ACAD_MLINESTYLE
350
17
0
DICTIONARY
5
D
100
AcDbDictionary
0
DICTIONARY
5
1A
330
C
100
AcDbDictionary
0
DICTIONARY
5
17
100
AcDbDictionary
0
ENDSEC
0
EOF
