0
SECTION
2
HEADER
9
$INSUNITS
70
4
9
$ACADVER
1
AC1014
9
$HANDSEED
5
FFFF
0
ENDSEC
0
SECTION
2
TABLES
0
TABLE
2
VPORT
5
8
100
AcDbSymbolTable
0
ENDTAB
0
TABLE
2
LTYPE
5
5
100
AcDbSymbolTable
0
LTYPE
5
14
100
AcDbSymbolTableRecord
100
AcDbLinetypeTableRecord
2
BYBLOCK
70
0
0
LTYPE
5
15
100
AcDbSymbolTableRecord
100
AcDbLinetypeTableRecord
2
BYLAYER
70
0
0
ENDTAB
0
TABLE
2
LAYER
5
2
100
AcDbSymbolTable
70
2
0
LAYER
5
50
100
AcDbSymbolTableRecord
100
AcDbLayerTableRecord
2
0
70
0
6
CONTINUOUS
0
ENDTAB
0
TABLE
2
STYLE
5
3
100
AcDbSymbolTable
70
1
0
STYLE
5
11
100
AcDbSymbolTableRecord
100
AcDbTextStyleTableRecord
2
STANDARD
70
0
0
ENDTAB
0
TABLE
2
VIEW
5
6
100
AcDbSymbolTable
70
0
0
ENDTAB
0
TABLE
2
UCS
5
7
100
AcDbSymbolTable
70
0
0
ENDTAB
0
TABLE
2
APPID
5
9
100
AcDbSymbolTable
70
2
0
APPID
5
12
100
AcDbSymbolTableRecord
100
AcDbRegAppTableRecord
2
ACAD
70
0
0
ENDTAB
0
TABLE
2
DIMSTYLE
5
A
100
AcDbSymbolTable
70
1
0
ENDTAB
0
TABLE
2
BLOCK_RECORD
5
1
100
AcDbSymbolTable
70
1
0
BLOCK_RECORD
5
1F
100
AcDbSymbolTableRecord
100
AcDbBlockTableRecord
2
*MODEL_SPACE
0
BLOCK_RECORD
5
1B
100
AcDbSymbolTableRecord
100
AcDbBlockTableRecord
2
*PAPER_SPACE
0
ENDTAB
0
ENDSEC
0
SECTION
2
BLOCKS
0
BLOCK
5
20
100
AcDbEntity
100
AcDbBlockBegin
2
*MODEL_SPACE
0
ENDBLK
5
21
100
AcDbEntity
100
AcDbBlockEnd
0
BLOCK
5
1C
100
AcDbEntity
100
AcDbBlockBegin
2
*PAPER_SPACE
0
ENDBLK
5
1D
100
AcDbEntity
100
AcDbBlockEnd
0
ENDSEC
0
SECTION
2
ENTITIES
0
SPLINE
5
100
100
AcDbEntity
8
0
100
AcDbSpline
70
0
71
3
72
18
73
14
74
0
42
0.000000001
43
0.0000000001
44
0.0000000001
40
0
40
0
40
0
40
0
40
0.11758753420619034
40
0.11758753420619034
40
0.23108734020031135
40
0.23108734020031135
40
0.34049778650469686
40
0.34049778650469686
40
0.44581731803778019
40
0.44581731803778019
40
0.5082967311840183
40
0.5082967311840183
40
0.56924861039934016
40
0.56924861039934016
40
0.56924861039934016
40
0.56924861039934016
10
-7.6906137459409685
20
137.94391236931307
30
0
10
-8.058716723267505
20
138.07856608272439
30
0
10
-8.3974814284526644
20
138.28264094536127
30
0
10
-8.9657753445419708
20
138.80176581120472
30
0
10
-9.1933241337683036
20
139.10790334710211
30
0
10
-9.5100231722601336
20
139.77879640965989
30
0
10
-9.6008403692382771
20
140.13480188041581
30
0
10
-9.6375915213024221
20
140.84793320871387
30
0
10
-9.5884024495243914
20
141.1978697450875
30
0
10
-9.4034803166347558
20
141.72384561352749
30
0
10
-9.311712566445749
20
141.91086576007288
30
0
10
-9.0879663539855216
20
142.25447228343887
30
0
10
-8.9577996578423225
20
142.41049070421877
30
0
10
-8.8102804600728213
20
142.54912252643396
30
0
0
ARC
5
101
100
AcDbEntity
8
0
100
AcDbCircle
10
-6.8968144634079973
20
140.91313532305873
30
0
40
2.517499999999997
210
0
220
-0
230
1
100
AcDbArc
50
40.529988897109241
51
139.47001110287979
0
SPLINE
5
102
100
AcDbEntity
8
0
100
AcDbSpline
70
0
71
3
72
18
73
14
74
0
42
0.000000001
43
0.0000000001
44
0.0000000001
40
0
40
0
40
0
40
0
40
0.099769799584282448
40
0.099769799584282448
40
0.20361825338825468
40
0.20361825338825468
40
0.31154358793888548
40
0.31154358793888548
40
0.42354396697567631
40
0.42354396697567631
40
0.49442794879926594
40
0.49442794879926594
40
0.5668473060482131
40
0.5668473060482131
40
0.5668473060482131
40
0.5668473060482131
10
-4.983348466742914
20
142.54912252643368
30
0
10
-4.7410019829673367
20
142.32137634043721
30
0
10
-4.5464145258462096
20
142.04765704148028
30
0
10
-4.2649444226505118
20
141.42937992312577
30
0
10
-4.1855535293930402
20
141.08863708037131
30
0
10
-4.1587209046757678
20
140.38200068382378
30
0
10
-4.2167755985104449
20
140.02275339393518
30
0
10
-4.4697062941495247
20
139.33267558346276
30
0
10
-4.6670531460506304
20
139.01033751007125
30
0
10
-5.0797669969580284
20
138.55889264243322
30
0
10
-5.2603760819876122
20
138.40397123082985
30
0
10
-5.6586014293382902
20
138.13711034621809
30
0
10
-5.8754643734458512
20
138.02715147113344
30
0
10
-6.1030151808756727
20
137.94391236931284
30
0
0
ARC
5
103
100
AcDbEntity
8
0
100
AcDbCircle
10
-6.8968144634079973
20
140.91313532305873
30
0
40
3.0735000000000112
210
0
220
0
230
1
100
AcDbArc
50
255.0324409838816
51
284.96755901610567
0
SPLINE
5
104
100
AcDbEntity
8
0
100
AcDbSpline
70
0
71
3
72
18
73
14
74
0
42
0.000000001
43
0.0000000001
44
0.0000000001
40
0
40
0
40
0
40
0
40
0.11758753420617458
40
0.11758753420617458
40
0.23108734020028673
40
0.23108734020028673
40
0.34049778650466295
40
0.34049778650466295
40
0.44581731803774349
40
0.44581731803774349
40
0.50829673118400909
40
0.50829673118400909
40
0.56924861039933083
40
0.56924861039933083
40
0.56924861039933083
40
0.56924861039933083
10
148.7025743155946
20
-160.92986285791886
30
0
10
148.33447133826812
20
-160.79520914450757
30
0
10
147.9957066330829
20
-160.59113428187075
30
0
10
147.4274127169935
20
-160.07200941602724
30
0
10
147.19986392776721
20
-159.76587188012988
30
0
10
146.88316488927538
20
-159.09497881757213
30
0
10
146.79234769229717
20
-158.73897334681621
30
0
10
146.755596540233
20
-158.02584201851809
30
0
10
146.80478561201105
20
-157.67590548214449
30
0
10
146.98970774490067
20
-157.14992961370439
30
0
10
147.08147549508968
20
-156.96290946715908
30
0
10
147.30522170754978
20
-156.6193029437932
30
0
10
147.435388403693
20
-156.46328452301321
30
0
10
147.58290760146258
20
-156.32465270079797
30
0
0
ARC
5
105
100
AcDbEntity
8
0
100
AcDbCircle
10
149.49637359812743
20
-157.96063990417318
30
3.6258597764404642e-43
40
2.5175000000000232
210
8.2022091515191278e-30
220
9.5933808507731943e-30
230
1
100
AcDbArc
50
40.529988897111963
51
139.47001110288073
0
SPLINE
5
106
100
AcDbEntity
8
0
100
AcDbSpline
70
0
71
3
72
18
73
14
74
0
42
0.000000001
43
0.0000000001
44
0.0000000001
40
0
40
0
40
0
40
0
40
0.099769799584280519
40
0.099769799584280519
40
0.20361825338825584
40
0.20361825338825584
40
0.31154358793888259
40
0.31154358793888259
40
0.42354396697566343
40
0.42354396697566343
40
0.49442794879923907
40
0.49442794879923907
40
0.56684730604814693
40
0.56684730604814693
40
0.56684730604814693
40
0.56684730604814693
10
151.40983959479252
20
-156.32465270079823
30
0
10
151.65218607856809
20
-156.55239888679463
30
0
10
151.84677353568921
20
-156.82611818575157
30
0
10
152.1282436388849
20
-157.44439530410605
30
0
10
152.20763453214238
20
-157.78513814686053
30
0
10
152.23446715685964
20
-158.49177454340807
30
0
10
152.17641246302497
20
-158.85102183329667
30
0
10
151.92348176738594
20
-159.54109964376909
30
0
10
151.72613491548483
20
-159.86343771716059
30
0
10
151.31342106457743
20
-160.31488258479865
30
0
10
151.13281197954785
20
-160.46980399640202
30
0
10
150.73458663219719
20
-160.73666488101378
30
0
10
150.51772368808972
20
-160.84662375609838
30
0
10
150.2901728806599
20
-160.92986285791898
30
0
0
ARC
5
107
100
AcDbEntity
8
0
100
AcDbCircle
10
149.49637359812743
20
-157.96063990417318
30
3.6258597764404642e-43
40
3.073499999999993
210
1.0566817520865864e-29
220
-2.824958683596876e-30
230
1
100
AcDbArc
50
255.03244098388427
51
284.96755901610857
0
SPLINE
5
108
100
AcDbEntity
8
0
100
AcDbSpline
70
0
71
3
72
18
73
14
74
0
42
0.000000001
43
0.0000000001
44
0.0000000001
40
0
40
0
40
0
40
0
40
0.1175875342061881
40
0.1175875342061881
40
0.23108734020031679
40
0.23108734020031679
40
0.34049778650472368
40
0.34049778650472368
40
0.44581731803784602
40
0.44581731803784602
40
0.50829673118409557
40
0.50829673118409557
40
0.56924861039937202
40
0.56924861039937202
40
0.56924861039937202
40
0.56924861039937202
10
-148.76819436953784
20
-160.76083398357025
30
0
10
-149.13629734686438
20
-160.62618027015895
30
0
10
-149.47506205204959
20
-160.42210540752211
30
0
10
-150.04335596813894
20
-159.9029805416786
30
0
10
-150.27090475736529
20
-159.59684300578124
30
0
10
-150.58760379585718
20
-158.92594994322343
30
0
10
-150.67842099283536
20
-158.56994447246754
30
0
10
-150.71517214489955
20
-157.85681314416942
30
0
10
-150.66598307312148
20
-157.50687660779582
30
0
10
-150.48106094023188
20
-156.98090073935586
30
0
10
-150.38929319004291
20
-156.79388059281047
30
0
10
-150.16554697758278
20
-156.45027406944453
30
0
10
-150.03538028143959
20
-156.29425564866452
30
0
10
-149.88786108366997
20
-156.15562382644927
30
0
0
ARC
5
109
100
AcDbEntity
8
0
100
AcDbCircle
10
-147.97439508700504
20
-157.79161102982445
30
0
40
2.5175000000000076
210
0
220
-0
230
1
100
AcDbArc
50
40.529988897112808
51
139.47001110288249
0
SPLINE
5
110
100
AcDbEntity
8
0
100
AcDbSpline
70
0
71
3
72
18
73
14
74
0
42
0.000000001
43
0.0000000001
44
0.0000000001
40
0
40
0
40
0
40
0
40
0.099769799584288443
40
0.099769799584288443
40
0.20361825338827994
40
0.20361825338827994
40
0.31154358793891773
40
0.31154358793891773
40
0.42354396697573743
40
0.42354396697573743
40
0.49442794879933438
40
0.49442794879933438
40
0.56684730604826816
40
0.56684730604826816
40
0.56684730604826816
40
0.56684730604826816
10
-146.06092909033998
20
-156.15562382644944
30
0
10
-145.81858260656435
20
-156.38337001244588
30
0
10
-145.62399514944326
20
-156.65708931140284
30
0
10
-145.34252504624757
20
-157.27536642975727
30
0
10
-145.26313415299003
20
-157.61610927251172
30
0
10
-145.23630152827278
20
-158.32274566905937
30
0
10
-145.29435622210747
20
-158.681992958948
30
0
10
-145.54728691774648
20
-159.37207076942036
30
0
10
-145.74463376964758
20
-159.69440884281187
30
0
10
-146.15734762055499
20
-160.14585371044996
30
0
10
-146.33795670558456
20
-160.30077512205332
30
0
10
-146.73618205293522
20
-160.56763600666511
30
0
10
-146.95304499704275
20
-160.67759488174971
30
0
10
-147.18059580447257
20
-160.76083398357036
30
0
0
ARC
5
111
100
AcDbEntity
8
0
100
AcDbCircle
10
-147.97439508700504
20
-157.79161102982445
30
0
40
3.0735000000000703
210
0
220
0
230
1
100
AcDbArc
50
255.03244098388535
51
284.967559016108
0
LWPOLYLINE
5
112
100
AcDbEntity
8
0
100
AcDbPolyline
90
20
70
1
43
0.0
10
-87.90409944027661
20
-136.19999885558886
10
89.35072429431132
20
-136.19999885559051
42
-0.1989395723710719
10
124.70976407576779
20
-150.84836090579603
10
140.65661365276321
20
-166.7985493916218
42
0.99999998709521587
10
158.3361336751868
20
-149.12273054844724
10
142.38124799930841
20
-133.16450428116153
42
-0.19888516267146161
10
127.74028778076521
20
-97.812866331366678
10
127.74028778076726
20
117.80000114440918
10
25.603185536591777
20
117.8000011444101
42
-0.41421356237309426
10
5.6031855365919503
20
137.80000114441032
10
5.6031855365919849
20
140.91313532305864
42
0.99999999999999989
10
-19.396814463407978
20
140.91313532305884
10
-19.39681446340801
20
137.80000114441054
42
-0.41421356237309537
10
-39.396814463408191
20
117.80000114441073
10
-126.2597122192326
20
117.80000114441151
10
-126.25971221923442
20
-97.778390048974941
42
-0.19965104685222829
10
-141.00499066271192
20
-133.2340610759353
10
-156.78807547613567
20
-148.92769327308426
42
0.99999999999999989
10
-139.16071469787448
20
-166.65552878656462
10
-123.15882099679956
20
-150.74432782862792
42
-0.19817389665828838
0
ENDSEC
0
SECTION
2
OBJECTS
0
DICTIONARY
5
C
100
AcDbDictionary
3
ACAD_GROUP
350
D
3
ACAD_MLINESTYLE
350
17
0
DICTIONARY
5
D
100
AcDbDictionary
0
DICTIONARY
5
1A
330
C
100
AcDbDictionary
0
DICTIONARY
5
17
100
AcDbDictionary
0
ENDSEC
0
EOF
