0
SECTION
2
HEADER
9
$INSUNITS
70
4
9
$ACADVER
1
AC1014
9
$HANDSEED
5
FFFF
0
ENDSEC
0
SECTION
2
TABLES
0
TABLE
2
VPORT
5
8
100
AcDbSymbolTable
0
ENDTAB
0
TABLE
2
LTYPE
5
5
100
AcDbSymbolTable
0
LTYPE
5
14
100
AcDbSymbolTableRecord
100
AcDbLinetypeTableRecord
2
BYBLOCK
70
0
0
LTYPE
5
15
100
AcDbSymbolTableRecord
100
AcDbLinetypeTableRecord
2
BYLAYER
70
0
0
ENDTAB
0
TABLE
2
LAYER
5
2
100
AcDbSymbolTable
70
2
0
LAYER
5
50
100
AcDbSymbolTableRecord
100
AcDbLayerTableRecord
2
0
70
0
6
CONTINUOUS
0
ENDTAB
0
TABLE
2
STYLE
5
3
100
AcDbSymbolTable
70
1
0
STYLE
5
11
100
AcDbSymbolTableRecord
100
AcDbTextStyleTableRecord
2
STANDARD
70
0
0
ENDTAB
0
TABLE
2
VIEW
5
6
100
AcDbSymbolTable
70
0
0
ENDTAB
0
TABLE
2
UCS
5
7
100
AcDbSymbolTable
70
0
0
ENDTAB
0
TABLE
2
APPID
5
9
100
AcDbSymbolTable
70
2
0
APPID
5
12
100
AcDbSymbolTableRecord
100
AcDbRegAppTableRecord
2
ACAD
70
0
0
ENDTAB
0
TABLE
2
DIMSTYLE
5
A
100
AcDbSymbolTable
70
1
0
ENDTAB
0
TABLE
2
BLOCK_RECORD
5
1
100
AcDbSymbolTable
70
1
0
BLOCK_RECORD
5
1F
100
AcDbSymbolTableRecord
100
AcDbBlockTableRecord
2
*MODEL_SPACE
0
BLOCK_RECORD
5
1B
100
AcDbSymbolTableRecord
100
AcDbBlockTableRecord
2
*PAPER_SPACE
0
ENDTAB
0
ENDSEC
0
SECTION
2
BLOCKS
0
BLOCK
5
20
100
AcDbEntity
100
AcDbBlockBegin
2
*MODEL_SPACE
0
ENDBLK
5
21
100
AcDbEntity
100
AcDbBlockEnd
0
BLOCK
5
1C
100
AcDbEntity
100
AcDbBlockBegin
2
*PAPER_SPACE
0
ENDBLK
5
1D
100
AcDbEntity
100
AcDbBlockEnd
0
ENDSEC
0
SECTION
2
ENTITIES
0
CIRCLE
5
100
100
AcDbEntity
8
0
100
AcDbCircle
10
188.2100933775705
20
215.89153526776127
30
0
40
1.9999999999999929
210
-1.2621774483536189e-29
220
4.7855257371298409e-84
230
1
0
CIRCLE
5
101
100
AcDbEntity
8
0
100
AcDbCircle
10
206.2559835040511
20
197.25057041328648
30
0
40
1.9999999999999929
210
-1.2621774483536189e-29
220
4.7855257371298409e-84
230
1
0
LWPOLYLINE
5
102
100
AcDbEntity
8
0
100
AcDbPolyline
90
22
70
1
43
0.0
10
209.98118486547963
20
201.96048252992253
42
0.41421356237309087
10
204.98118486547963
20
206.96048252992253
10
201.22614889304171
20
206.96048252992253
42
-0.41421356237309087
10
196.22614889304171
20
211.96048252992253
10
196.22614889304171
20
216.49999999999991
42
0.41421356237309503
10
191.22614889304171
20
221.49999999999991
10
164.12472551934368
20
221.49999999999991
42
0.41421356237309503
10
159.12472551934368
20
216.49999999999991
10
159.12472551934371
20
190.70402928973732
42
0.41421356237309503
10
164.12472551934368
20
185.70402928973732
10
186.72990839720117
20
185.70402928973732
42
-0.41421356237309087
10
191.72990839720117
20
180.70402928973732
10
191.72990839720117
20
-159.37848295492418
42
-0.41421356237309087
10
186.72990839720117
20
-164.37848295492418
10
161.46236973096478
20
-164.37848295492418
42
0.41421356237309503
10
156.46236973096478
20
-169.37848295492418
10
156.46236973096472
20
-215
42
0.41421356237309503
10
161.46236973096472
20
-220
10
191.72990839720111
20
-220
10
191.72990839720109
20
-219.99969530598116
10
204.98118486547955
20
-219.99969530598111
42
0.41421356237309293
10
209.98118486547952
20
-214.99969530598116
0
LWPOLYLINE
5
103
100
AcDbEntity
8
0
100
AcDbPolyline
90
2
70
1
43
0.0
10
188.21673387702108
20
-213.90006526104966
42
28.787355172721149
10
188.49345878027793
20
-213.92164250133644
42
0.043451391424770475
0
CIRCLE
5
104
100
AcDbEntity
8
0
100
AcDbCircle
10
198.73116633676116
20
85.499999999997527
30
0
40
1.2645
210
1.6139947381120257e-85
220
-1.2744735289059618e-57
230
1
0
CIRCLE
5
105
100
AcDbEntity
8
0
100
AcDbCircle
10
198.73116633676116
20
-74.50000000000172
30
0
40
1.2645
210
1.6139947381120257e-85
220
-1.2744735289059618e-57
230
1
0
CIRCLE
5
106
100
AcDbEntity
8
0
100
AcDbCircle
10
198.73116633676116
20
-114.50000000000161
30
0
40
1.2645
210
1.6139947381120257e-85
220
-1.2744735289059618e-57
230
1
0
CIRCLE
5
107
100
AcDbEntity
8
0
100
AcDbCircle
10
198.73116633676116
20
45.499999999997542
30
0
40
1.2645
210
1.6139947381120257e-85
220
-1.2744735289059618e-57
230
1
0
CIRCLE
5
108
100
AcDbEntity
8
0
100
AcDbCircle
10
198.73116633676116
20
125.49999999999753
30
0
40
1.2645
210
1.6139947381120257e-85
220
-1.2744735289059618e-57
230
1
0
CIRCLE
5
109
100
AcDbEntity
8
0
100
AcDbCircle
10
198.73116633676116
20
-34.500000000001933
30
0
40
1.2645
210
1.6139947381120257e-85
220
-1.2744735289059618e-57
230
1
0
CIRCLE
5
110
100
AcDbEntity
8
0
100
AcDbCircle
10
198.73116633676116
20
-154.50000000000151
30
0
40
1.2645
210
1.6139947381120257e-85
220
-1.2744735289059618e-57
230
1
0
CIRCLE
5
111
100
AcDbEntity
8
0
100
AcDbCircle
10
198.73116633676116
20
5.4999999999975557
30
0
40
1.2645
210
1.6139947381120257e-85
220
-1.2744735289059618e-57
230
1
0
CIRCLE
5
112
100
AcDbEntity
8
0
100
AcDbCircle
10
198.73116633676102
20
165.49999999999753
30
0
40
1.2645
210
1.6139947381120257e-85
220
-1.2744735289059618e-57
230
1
0
CIRCLE
5
113
100
AcDbEntity
8
0
100
AcDbCircle
10
195.10010076049568
20
-176.3446730919066
30
0
40
1.2645
210
1.2621774483536189e-29
220
1.8065092961940445e-57
230
1
0
CIRCLE
5
114
100
AcDbEntity
8
0
100
AcDbCircle
10
195.10010076049267
20
-197.98167309190654
30
0
40
1.2645
210
1.2621774483536189e-29
220
1.8065092961940445e-57
230
1
0
CIRCLE
5
115
100
AcDbEntity
8
0
100
AcDbCircle
10
160.89510076049746
20
-176.34467309190177
30
0
40
1.2645
210
1.2621774483536189e-29
220
3.8076434115051681e-58
230
1
0
CIRCLE
5
116
100
AcDbEntity
8
0
100
AcDbCircle
10
160.89510076049442
20
-197.98667309190171
30
0
40
1.2645
210
1.2621774483536189e-29
220
3.8076434115051568e-58
230
1
0
CIRCLE
5
117
100
AcDbEntity
8
0
100
AcDbCircle
10
165.00837194094504
20
213.74999999998232
30
0
40
1.2645
210
-0
220
0
230
1
0
CIRCLE
5
118
100
AcDbEntity
8
0
100
AcDbCircle
10
165.00837194094311
20
193.0269999999831
30
0
40
1.2645
210
-0
220
0
230
1
0
LWPOLYLINE
5
119
100
AcDbEntity
8
0
100
AcDbPolyline
90
2
70
1
43
0.0
10
205.88984224557277
20
-195.28818622385523
42
14.522111616353088
10
206.43762430104442
20
-195.26472513215921
42
0.086307562884151423
0
CIRCLE
5
120
100
AcDbEntity
8
0
100
AcDbCircle
10
183.72809888736455
20
-173.99999999245233
30
0
40
2.5
210
-0
220
0
230
1
0
CIRCLE
5
121
100
AcDbEntity
8
0
100
AcDbCircle
10
181.73118486547949
20
192.99999999999989
30
0
40
2.2500000000000142
210
-0
220
0
230
1
0
ENDSEC
0
SECTION
2
OBJECTS
0
DICTIONARY
5
C
100
AcDbDictionary
3
ACAD_GROUP
350
D
3
ACAD_MLINESTYLE
350
17
0
DICTIONARY
5
D
100
AcDbDictionary
0
DICTIONARY
5
1A
330
C
100
AcDbDictionary
0
DICTIONARY
5
17
100
AcDbDictionary
0
ENDSEC
0
EOF
